<svg id="Шар_1" data-name="Шар 1" xmlns="http://www.w3.org/2000/svg" viewBox="0 0 36.58 55.14"><defs><style>.cls-1,.cls-2{fill:none;stroke:#fff;stroke-miterlimit:10;}.cls-1{stroke-width:3px;}.cls-2{stroke-width:2px;}</style></defs><title>decrypt</title><circle class="cls-1" cx="18.29" cy="36.85" r="16.79"/><path class="cls-1" d="M8.14,17.92a12.05,12.05,0,1,1,24.1,0V30.05" transform="translate(-1.9 -4.36)"/><path class="cls-2" d="M22,37.24a2,2,0,1,0-3.91,0,1.9,1.9,0,0,0,.5,1.29,3.11,3.11,0,0,0,0,.43c0,1.25.68,2.26,1.52,2.26s1.53-1,1.53-2.26a2.92,2.92,0,0,0,0-.51A2,2,0,0,0,22,37.24Z" transform="translate(-1.9 -4.36)"/></svg>