<svg id="Шар_1" data-name="Шар 1" xmlns="http://www.w3.org/2000/svg" viewBox="0 0 221.21 47.75"><defs><style>.cls-1{fill:#d4d3d3;stroke:#1d1d1b;stroke-miterlimit:10;stroke-width:0.25px;}</style></defs><title>Corpus</title><path class="cls-1" d="M2.1,15.7V13.59S67.17,2,81.11,1.75l29.15-.46,9.55.41s29.87,4.52,48.65,14a10.17,10.17,0,0,1,5.75.81c3.23,1.37,28.24,3.07,46.86,19.83v.5h-3.8s-.83,5.26-5.26,5.49l3.92,4.85,4.44-.51V46l.7-.1,1.83,1.67a94,94,0,0,1-11.44,1h-.24c-6.14.09-21.42.27-21.42.27l4-7,.37-2.12-1.62-4.11-2.77-4.71L186,26.36l-3.6-2.68-5.82-1.8-8.91-.05-3.87,1.94L159.1,29l-3.41,5.21L153.24,40,156,48.79h-7.48a33.67,33.67,0,0,0-6.37-.64l-82,.64,4.66-8.63.37-3-5.82-9.1-7-6.6-18.84-2-5,3.92-4.43,5.36-2.22,5.91L21.66,38l2.13,1.75L16.59,39s-2.87-.92-3-1.25L2.1,22.15V19.48l1,0,0-3.27Z" transform="translate(-1.97 -1.17)"/></svg>