<?xml version="1.0" encoding="utf-8"?>
<!-- Svg Vector Icons : http://www.onlinewebfonts.com/icon -->
<!DOCTYPE svg PUBLIC "-//W3C//DTD SVG 1.1//EN" "http://www.w3.org/Graphics/SVG/1.1/DTD/svg11.dtd">
<svg version="1.1" xmlns="http://www.w3.org/2000/svg" xmlns:xlink="http://www.w3.org/1999/xlink" x="0px" y="0px" viewBox="0 0 256 256" enable-background="new 0 0 256 256" xml:space="preserve">
<metadata> Svg Vector Icons : http://www.onlinewebfonts.com/icon </metadata>
<g><g><g><path fill="#000000" d="M169.4,10.7c-8.8,1.9-18.8,7.2-25.5,13.7c-10.5,10.1-16.2,22.8-16.2,35.8v4.1h4.1c12.4,0,23.9-6.8,33.2-19.3c3.5-4.8,7.6-12.9,8.8-17.8c1.2-4.8,2-11.8,1.6-14.9C175,9.6,174.9,9.6,169.4,10.7z"/><path fill="#000000" d="M166.1,67.2c-5.1,0.6-10.4,2.1-20.5,5.7c-5.2,1.8-10.7,3.7-12.2,4.1c-4.6,1.3-5.1,1.2-24.8-5.7c-7.5-2.7-12.6-3.7-18.2-3.7c-21.2,0-41.1,13.3-51.1,34.3c-10.5,22-9.9,52.5,1.7,83.7c4.5,12.2,10.4,23.3,18.2,34.2c12.2,17.1,21.9,25.1,31.7,26c5.4,0.5,10.1-0.6,24.2-5.9c13.2-4.9,23.3-4.6,38.1,1.2c23.3,9.1,34.2,4.7,52.6-21.3c3.8-5.4,8-12.4,10.9-18.1c1.9-3.8,6.9-16,7.3-17.8c0.1-0.5-0.8-1.2-3.1-2.4c-11.7-6.2-20.8-16.5-25.1-28.2c-2.3-6.2-3-10.7-3-18.6c0-10.9,2-18.8,7.1-27c2.9-4.7,9.4-11.5,14-14.7c1.8-1.2,3.4-2.4,3.6-2.6c1-0.8-7.3-9.8-12.4-13.4c-7.6-5.4-17.5-8.9-28.4-10.1C171.9,66.6,170.7,66.6,166.1,67.2z"/></g></g></g>
</svg>