<svg width="79" height="79" viewBox="0 0 79 79" fill="none" xmlns="http://www.w3.org/2000/svg">
<path d="M39.2822 78.7499C60.9686 78.7499 78.5488 61.1198 78.5488 39.372C78.5488 17.6242 60.9686 -0.00585938 39.2822 -0.00585938C17.5959 -0.00585938 0.015625 17.6242 0.015625 39.372C0.015625 61.1198 17.5959 78.7499 39.2822 78.7499Z" fill="#0C0C0C" fill-opacity="0.9"/>
<path d="M39.8996 35.7155L33.3018 42.3133L30.4153 39.4268M47.3221 38.1897L40.7243 44.7875L39.0749 43.138M53.7056 39.8391C53.7056 48.0378 47.0593 54.6841 38.8606 54.6841C30.662 54.6841 24.0156 48.0378 24.0156 39.8391C24.0156 31.6405 30.662 24.9941 38.8606 24.9941C47.0593 24.9941 53.7056 31.6405 53.7056 39.8391Z" stroke="#FBFBFB" stroke-width="1.7936" stroke-linecap="round" stroke-linejoin="round"/>
</svg>
