<svg id="Шар_1" data-name="Шар 1" xmlns="http://www.w3.org/2000/svg" viewBox="0 0 219.66 190.53"><defs><style>.cls-1{fill:#fff;stroke:#1d1d1b;stroke-miterlimit:10;stroke-width:0.5px;}</style></defs><title>atrid</title><path class="cls-1" d="M222.06,15.28v1q0,17.24,0,34.47a2.54,2.54,0,0,1-.82,2c-3.48,3.44-7.07,6.78-10.35,10.4-5.89,6.49-12.27,12.48-18.43,18.68C182.12,92.3,171.64,102.62,161.24,113q-13.69,13.7-27.33,27.46c-2.13,2.13-4.25,4.27-6.39,6.38a1.83,1.83,0,0,0-.6,1.4q0,16.29.06,32.58,0,4.56,0,9.13a2.21,2.21,0,0,1-.71,1.67c-4.19,4.17-8.36,8.37-12.54,12.55-1,1-1.52,1-2.53,0-4.2-4.21-8.38-8.42-12.59-12.61a2.18,2.18,0,0,1-.69-1.68q0-17.49.05-35c0-2.26,0-4.52,0-6.79a1.85,1.85,0,0,0-.5-1.19q-16.58-16.69-33.19-33.35Q49.07,98.31,33.81,83c-6.12-6.1-12.3-12.14-18.4-18.25C12.65,62,10,59.14,7.3,56.33,6,55,4.71,53.77,3.46,52.44a2,2,0,0,1-.52-1.27q0-17.52,0-35.06c0-.21,0-.42.05-.87.61.57,1.1,1,1.56,1.46Q18.3,30.44,32.06,44.19l72.47,72.61c2.45,2.45,4.9,4.88,7.33,7.34.49.5.83.5,1.32,0q22.66-22.73,45.36-45.45,16.19-16.23,32.35-32.48,9.24-9.26,18.5-18.48c2.58-2.58,5.2-5.12,7.79-7.69,1.47-1.45,2.91-2.93,4.36-4.39C221.64,15.56,221.77,15.49,222.06,15.28Z" transform="translate(-2.67 -14.69)"/><path class="cls-1" d="M33.09,86.9c.54.53,1,.95,1.43,1.39l23.6,23.64q18,18,36,36.06a2.11,2.11,0,0,1,.65,1.61q0,17.27-.06,34.54a2.1,2.1,0,0,1-.37,1.2c-.53.66-1.16.62-1.88-.09-1-.95-1.92-1.93-2.88-2.89Q82.26,175,75,167.69a2.56,2.56,0,0,1-.77-1.93c0-5.53,0-11,.1-16.58a2.08,2.08,0,0,0-.65-1.6q-11.92-11.94-23.81-23.91-8.26-8.31-16.54-16.59a.81.81,0,0,1-.24-.54c0-6.4,0-12.81,0-19.21A3.55,3.55,0,0,1,33.09,86.9Z" transform="translate(-2.67 -14.69)"/><path class="cls-1" d="M192,86.86v1.07c0,6,0,12,0,18a1.87,1.87,0,0,1-.62,1.5q-7,6.94-13.93,14-8.65,8.7-17.32,17.41-4.36,4.41-8.76,8.79a1.83,1.83,0,0,0-.56,1.42c0,5.62,0,11.25,0,16.87a2.31,2.31,0,0,1-.73,1.8q-8.61,8.65-17.2,17.35c-.81.82-1.18.89-1.88.49a1.22,1.22,0,0,1-.58-1.23q0-8.1,0-16.21,0-9.09-.08-18.19a2.69,2.69,0,0,1,.87-2.11Q145,134,158.8,120.11q14.14-14.2,28.28-28.43l4.17-4.18Z" transform="translate(-2.67 -14.69)"/><path class="cls-1" d="M131.51,88.17a6.45,6.45,0,0,1,0,1.46,1.63,1.63,0,0,1-.67,1.06,1.78,1.78,0,0,1-1.33-.12,6.14,6.14,0,0,1-1.34-1.11.73.73,0,0,0-1.23,0c-1.3,1.34-2.63,2.64-4,4-.67.67-.67.75,0,1.4,2.15,2.15,4.26,4.34,6.46,6.44a1.62,1.62,0,0,1,0,2.58c-5.19,5.11-10.32,10.26-15.47,15.4a2.92,2.92,0,0,1-.89.73,1.43,1.43,0,0,1-1.58-.41c-3.23-3.26-6.49-6.49-9.73-9.73q-3.12-3.1-6.22-6.23c-.84-.85-.82-1.39,0-2.23l16.36-16.2a2.21,2.21,0,0,1,1.7-.68c5.08.07,10.17.11,15.25.18a3.63,3.63,0,0,1,1.27.25,2,2,0,0,1,1.4,2.13C131.48,87.44,131.51,87.81,131.51,88.17Z" transform="translate(-2.67 -14.69)"/></svg>